<svg xmlns="http://www.w3.org/2000/svg" width="2133" height="1600" viewBox="0 0 2133.333 1600" preserveAspectRatio="xMidYMid meet" role="img" aria-label="Deep Desert operational map derived from server markers">
<style>
.bg{fill:#171512}.dune{fill:#2a241b;opacity:.82}.ridge{fill:none;stroke:#d9a63c;stroke-width:7;opacity:.26}.grid{stroke:#f1d08a;stroke-width:1;opacity:.18}.coord,.meta,.legend{fill:#c7bba9;font:18px system-ui,sans-serif}.cellLabel{fill:#e7c875;font:700 22px system-ui,sans-serif;text-anchor:middle;opacity:.68;paint-order:stroke;stroke:#0b0d0a;stroke-width:5}.dot{fill:#78cf7a;stroke:#071007;stroke-width:4}.label{fill:#fff;font:700 24px system-ui,sans-serif;paint-order:stroke;stroke:#0b0d0a;stroke-width:7}.pointLabel{fill:#fff;font:700 18px system-ui,sans-serif;paint-order:stroke;stroke:#0b0d0a;stroke-width:5}.empty{fill:#f3eadb;font:26px system-ui,sans-serif;text-anchor:middle;paint-order:stroke;stroke:#0b0d0a;stroke-width:6}.marker{opacity:.92;cursor:help}.shiftingSand{fill:#e7d59a;stroke:#fff0bc;stroke-width:2}
</style>
<rect class="bg" x="0" y="0" width="2133.333" height="1600"/>
<path class="dune" d="M0 1120 C360 990 630 1230 990 1080 C1340 930 1680 1050 2133 880 L2133 1600 L0 1600 Z"/>
<path class="ridge" d="M0 410 C340 290 650 520 980 365 C1370 190 1700 390 2133 245"/>
<path class="ridge" d="M0 760 C300 660 650 890 1010 710 C1390 520 1700 750 2133 565"/>

<line x1="0.0" y1="0" x2="0.0" y2="1600" class="grid"/><line x1="0" y1="0.0" x2="2133.3" y2="0.0" class="grid"/><text x="118.5" y="118" class="cellLabel">1</text><text x="34" y="88.9" class="cellLabel">I</text><text x="10.0" y="24" class="coord">X -1250000</text><text x="10" y="44.0" class="coord">Y -1250000</text><line x1="237.0" y1="0" x2="237.0" y2="1600" class="grid"/><line x1="0" y1="177.8" x2="2133.3" y2="177.8" class="grid"/><text x="355.6" y="118" class="cellLabel">2</text><text x="34" y="266.7" class="cellLabel">H</text><line x1="474.1" y1="0" x2="474.1" y2="1600" class="grid"/><line x1="0" y1="355.6" x2="2133.3" y2="355.6" class="grid"/><text x="592.6" y="118" class="cellLabel">3</text><text x="34" y="444.4" class="cellLabel">G</text><text x="482.1" y="24" class="coord">X -716667</text><text x="10" y="347.6" class="coord">Y -738889</text><line x1="711.1" y1="0" x2="711.1" y2="1600" class="grid"/><line x1="0" y1="533.3" x2="2133.3" y2="533.3" class="grid"/><text x="829.6" y="118" class="cellLabel">4</text><text x="34" y="622.2" class="cellLabel">F</text><line x1="948.1" y1="0" x2="948.1" y2="1600" class="grid"/><line x1="0" y1="711.1" x2="2133.3" y2="711.1" class="grid"/><text x="1066.7" y="118" class="cellLabel">5</text><text x="34" y="800.0" class="cellLabel">E</text><text x="956.1" y="24" class="coord">X -183333</text><text x="10" y="703.1" class="coord">Y -227778</text><line x1="1185.2" y1="0" x2="1185.2" y2="1600" class="grid"/><line x1="0" y1="888.9" x2="2133.3" y2="888.9" class="grid"/><text x="1303.7" y="118" class="cellLabel">6</text><text x="34" y="977.8" class="cellLabel">D</text><line x1="1422.2" y1="0" x2="1422.2" y2="1600" class="grid"/><line x1="0" y1="1066.7" x2="2133.3" y2="1066.7" class="grid"/><text x="1540.7" y="118" class="cellLabel">7</text><text x="34" y="1155.6" class="cellLabel">C</text><text x="1430.2" y="24" class="coord">X 350000</text><text x="10" y="1058.7" class="coord">Y 283333</text><line x1="1659.3" y1="0" x2="1659.3" y2="1600" class="grid"/><line x1="0" y1="1244.4" x2="2133.3" y2="1244.4" class="grid"/><text x="1777.8" y="118" class="cellLabel">8</text><text x="34" y="1333.3" class="cellLabel">B</text><line x1="1896.3" y1="0" x2="1896.3" y2="1600" class="grid"/><line x1="0" y1="1422.2" x2="2133.3" y2="1422.2" class="grid"/><text x="2014.8" y="118" class="cellLabel">9</text><text x="34" y="1511.1" class="cellLabel">A</text><text x="1904.3" y="24" class="coord">X 883333</text><text x="10" y="1414.2" class="coord">Y 794444</text><line x1="2133.3" y1="0" x2="2133.3" y2="1600" class="grid"/><line x1="0" y1="1600.0" x2="2133.3" y2="1600.0" class="grid"/>
<g class="marker" transform="translate(991.7 1168.8)"><title>Copper inferred field center from pak distribution raster; confidence inferred</title><circle r="31.2" fill="none" stroke="#e7d35b" opacity=".72" stroke-width="3" stroke-dasharray="5 4"/><circle r="5" fill="#e7d35b"/><text x="12" y="-10" class="pointLabel">Copper</text></g><g class="marker" transform="translate(1883.3 100.0)"><title>Tier 6 A inferred field center from pak distribution raster; confidence inferred</title><circle r="42.0" fill="none" stroke="#e7d35b" opacity=".72" stroke-width="3" stroke-dasharray="5 4"/><circle r="5" fill="#e7d35b"/><text x="12" y="-10" class="pointLabel">Tier 6 A</text></g><g class="marker" transform="translate(545.8 362.5)"><title>Tier 6 A inferred field center from pak distribution raster; confidence inferred</title><circle r="42.0" fill="none" stroke="#e7d35b" opacity=".72" stroke-width="3" stroke-dasharray="5 4"/><circle r="5" fill="#e7d35b"/><text x="12" y="-10" class="pointLabel">Tier 6 A</text></g><g class="marker" transform="translate(1245.8 631.2)"><title>Iron inferred field center from pak distribution raster; confidence inferred</title><circle r="37.5" fill="none" stroke="#e7d35b" opacity=".72" stroke-width="3" stroke-dasharray="5 4"/><circle r="5" fill="#e7d35b"/><text x="12" y="-10" class="pointLabel">Iron</text></g><g class="marker" transform="translate(383.3 900.0)"><title>Carbon inferred field center from pak distribution raster; confidence inferred</title><circle r="25.0" fill="none" stroke="#e7d35b" opacity=".72" stroke-width="3" stroke-dasharray="5 4"/><circle r="5" fill="#e7d35b"/><text x="12" y="-10" class="pointLabel">Carbon</text></g><g class="marker" transform="translate(808.3 693.8)"><title>Aluminium inferred field center from pak distribution raster; confidence inferred</title><circle r="31.2" fill="none" stroke="#e7d35b" opacity=".72" stroke-width="3" stroke-dasharray="5 4"/><circle r="5" fill="#e7d35b"/><text x="12" y="-10" class="pointLabel">Aluminium</text></g><g class="marker" transform="translate(816.7 162.5)"><title>Tier 6 B inferred field center from pak distribution raster; confidence inferred</title><circle r="31.2" fill="none" stroke="#e7d35b" opacity=".72" stroke-width="3" stroke-dasharray="5 4"/><circle r="5" fill="#e7d35b"/><text x="12" y="-10" class="pointLabel">Tier 6 B</text></g><g class="marker" transform="translate(1525.0 956.2)"><title>Stone inferred field center from pak distribution raster; confidence inferred</title><circle r="25.0" fill="none" stroke="#e7d35b" opacity=".72" stroke-width="3" stroke-dasharray="5 4"/><circle r="5" fill="#e7d35b"/><text x="12" y="-10" class="pointLabel">Stone</text></g><g class="marker" transform="translate(191.7 765.6)"><title>Basalt inferred field center from pak distribution raster; confidence inferred</title><circle r="31.2" fill="none" stroke="#e7d35b" opacity=".72" stroke-width="3" stroke-dasharray="5 4"/><circle r="5" fill="#e7d35b"/><text x="12" y="-10" class="pointLabel">Basalt</text></g>

<text x="1066.7" y="830" class="empty">No online Deep Desert positions.</text>
<rect x="0" y="0" width="2133.333" height="122" fill="#171512" opacity=".82"/>
<text x="22" y="38" class="meta">Deep Desert Map</text>
<text x="22" y="66" class="meta">farm seed unknown, map seed unknown, shifting sand rows 0 | resource fields 0 | spice spice state unavailable</text>
<text x="22" y="94" class="meta">Pak-derived inferred field centers; saved DB markers are not rendered as authoritative nodes.</text>
<text x="22" y="1576" class="meta">Updated 2026-05-22 21:03 UTC | layout DA_DeepDesert_Layout18 | discrete points, no heatmap blobs</text>
<circle cx="24" cy="74" r="8" fill="#e7d35b"/><text x="40" y="81" class="legend">Resource fields 9</text>
</svg>
